<svg width="430" height="380" xmlns="http://www.w3.org/2000/svg">
 <g>
  <title>Layer 1</title>
  <g stroke="null">
   <path stroke="null" class="selected" data-spm-anchor-id="a313x.search_index.0.i1.28ea3a814TVhpT" p-id="10044" fill="#ffffff" d="m147.44491,165.4827c-80.83123,0 -146.35001,89.63047 -146.35001,200.20713c0,3.66901 0.07495,7.35706 0.22484,11.00703l292.17581,0c0.18757,-3.64996 0.26293,-7.33802 0.26293,-11.00703c0,-110.57666 -65.51961,-200.20713 -146.31357,-200.20713m1.34819,-20.59092c40.7715,0 73.86752,-32.30972 73.86752,-72.18312c0,-39.83531 -33.09602,-72.14502 -73.86752,-72.14502c-40.80877,0 -73.83067,32.30972 -73.83067,72.14502c0,39.87299 33.02191,72.18312 73.83067,72.18312m178.66055,90.77163c-7.07592,0 -13.92824,1.10389 -20.59175,3.03218c18.57029,35.92283 29.57732,79.63376 29.57732,126.90107c0,3.66818 -0.07536,7.35706 -0.22484,11.02524l88.73154,0c0.07453,-2.43303 0.14948,-4.90457 0.14948,-7.35706c-0.00041,-73.75448 -43.72915,-133.60144 -97.64176,-133.60144m50.2055,-61.88745c0,-26.60062 -22.08983,-48.1472 -49.30782,-48.1472s-49.26972,21.54657 -49.26972,48.1472c0,26.61926 22.05173,48.16624 49.26972,48.16624s49.30782,-21.54699 49.30782,-48.16624"/>
  </g>
 </g>

</svg>