<?xml version="1.0" standalone="no"?><!DOCTYPE svg PUBLIC "-//W3C//DTD SVG 1.1//EN" "http://www.w3.org/Graphics/SVG/1.1/DTD/svg11.dtd"><svg t="1699536039488" class="icon" viewBox="0 0 1120 1024" version="1.1" xmlns="http://www.w3.org/2000/svg" p-id="51579" xmlns:xlink="http://www.w3.org/1999/xlink" width="32" height="32"><path d="M1021.866942 0h-940.97144a82.31334 82.31334 0 0 0-80.895502 82.234571v657.719029a82.31334 82.31334 0 0 0 80.895502 82.234571h213.148227a40.329598 40.329598 0 0 1 29.380742 67.268509l-73.49124 74.75154a40.80221 40.80221 0 0 0 36.785005 59.785479h536.651466a40.80221 40.80221 0 0 0 36.785005-59.785479l-73.49124-74.75154a40.329598 40.329598 0 0 1 29.380742-67.268509h205.822733a82.31334 82.31334 0 0 0 80.895503-82.234571v-657.719029a87.590846 87.590846 0 0 0-80.895503-82.234571z m-110.276244 657.719029h-742.4742a35.052092 35.052092 0 0 1-36.785005-37.336385 41.668667 41.668667 0 0 1 36.785005-44.819417h742.552969a47.812629 47.812629 0 0 1 44.110497 44.819417 41.353592 41.353592 0 0 1-44.189266 37.336385z" fill="#ffffff" p-id="51580" data-spm-anchor-id="a313x.search_index.0.i10.58793a81PdHQlB" class="selected"></path></svg>