<?xml version="1.0" standalone="no"?><!DOCTYPE svg PUBLIC "-//W3C//DTD SVG 1.1//EN" "http://www.w3.org/Graphics/SVG/1.1/DTD/svg11.dtd"><svg t="1699579888504" class="icon" viewBox="0 0 1024 1024" version="1.1" xmlns="http://www.w3.org/2000/svg" p-id="58324" xmlns:xlink="http://www.w3.org/1999/xlink" width="32" height="32"><path d="M678.613 872.747H368.427a65.493 65.493 0 0 1-65.494-65.494v-8.106a220.587 220.587 0 0 1 440.96 0v8.106a65.28 65.28 0 0 1-65.28 65.494zM537.6 547.84a128 128 0 1 1 0-256 128 128 0 0 1 0 256z m-252.373-5.76a85.333 85.333 0 1 1 85.333-85.333 85.333 85.333 0 0 1-85.333 85.333z m109.653 30.507A205.227 205.227 0 0 0 257.92 766.08v7.68a60.8 60.8 0 0 0 60.8 60.8H181.76a61.013 61.013 0 0 1-61.013-60.8v-7.68A205.653 205.653 0 0 1 326.4 560.64a202.88 202.88 0 0 1 68.48 11.947z m284.373-115.84a85.333 85.333 0 1 1 85.334 85.333 85.333 85.333 0 0 1-85.334-85.333z m-22.613 115.84a202.88 202.88 0 0 1 68.693-11.947 205.44 205.44 0 0 1 205.44 205.44v7.68a61.013 61.013 0 0 1-61.013 60.8H732.8a60.8 60.8 0 0 0 60.8-60.8v-7.68a205.013 205.013 0 0 0-136.96-193.493z" p-id="58325" data-spm-anchor-id="a313x.search_index.0.i16.58793a81PdHQlB" class="selected" fill="#ffffff"></path></svg>